<svg width="128" height="128" viewBox="0 0 128 128" fill="none" xmlns="http://www.w3.org/2000/svg">
<style>
  .icon { fill: #e8e5ea; }
  @media (prefers-color-scheme: light) {
    .icon { fill: #2b272e; }
  }
</style>
<g clip-path="url(#clip0_186_5)">
<path class="icon" d="M101.891 0C116.258 0 128 11.7566 128 26.1133V101.887C128.016 116.243 116.258 128 101.891 128H26.1094C11.7423 128 0.000170295 116.243 0 101.887V26.1133C0.000144829 11.7566 11.7582 0 26.1094 0H101.891ZM44.2041 32C44.2041 32.0053 44.0926 45.9071 44.0449 59.8574C44.0132 67.9642 43.981 74.4402 44.0127 79.1074C44.0127 81.772 44.0295 84.0013 44.0615 85.584C44.1093 88.7651 44.1406 90.5096 45.9541 92.3506C47.0997 93.5134 48.6915 94.1748 50.3301 94.1748C62.231 94.1585 74.5937 93.2869 83.3125 82.8545C88.9449 76.0719 90.1693 67.4479 86.5576 59.7607C82.055 50.1036 71.093 43.7896 56.4717 42.0938C56.5034 38.7349 56.519 35.4076 56.5508 32.0811L44.2041 32ZM56.4238 54.5283C67.354 56.0628 73.3361 60.633 75.4043 64.9609C76.9634 68.32 76.4071 71.8564 73.8457 74.9248C70.234 79.285 65.6198 81.1426 56.376 81.6592C56.344 75.4901 56.3761 65.1547 56.4238 54.5283Z"/>
</g>
<defs>
<clipPath id="clip0_186_5">
<rect width="128" height="128" fill="white"/>
</clipPath>
</defs>
</svg>
