<svg width="136" height="48" viewBox="0 0 136 48" fill="none" xmlns="http://www.w3.org/2000/svg">
<g clip-path="url(#clip0_185_20)">
<g clip-path="url(#clip1_185_20)">
<path fill-rule="evenodd" clip-rule="evenodd" d="M38.2091 48H9.79093C4.40323 48 0 43.5912 0 38.2074V9.79258C0 4.40878 4.4092 0 9.79093 0H38.2091C43.5968 0 48 4.40878 48 9.79258V38.2074C48.006 43.5912 43.5968 48 38.2091 48Z" fill="#BBBDBF"/>
<path fill-rule="evenodd" clip-rule="evenodd" d="M21.1588 20.4481C21.1409 24.433 21.1289 28.3088 21.1409 30.6222C24.6074 30.4285 26.3376 29.732 27.692 28.0969C28.6526 26.9462 28.8614 25.62 28.2767 24.3603C27.5011 22.7373 25.2577 21.0235 21.1588 20.4481ZM18.8736 35.3157C18.2591 35.3157 17.6624 35.0674 17.2328 34.6313C16.5527 33.9409 16.5408 33.2869 16.5229 32.0939C16.5109 31.5004 16.5049 30.6646 16.5049 29.6654C16.493 27.9152 16.505 25.4867 16.5169 22.4466C16.5348 17.2142 16.5766 12 16.5766 12L21.2065 12.0303C21.1946 13.2778 21.1886 14.5254 21.1767 15.785C26.6598 16.4209 30.7707 18.7888 32.4592 22.4103C33.8136 25.293 33.3542 28.5269 31.242 31.0704C27.9724 34.9826 23.3365 35.3096 18.8736 35.3157Z" fill="white"/>
</g>
<path fill-rule="evenodd" clip-rule="evenodd" d="M73.5706 20.1454C73.5492 24.9309 73.5349 29.5854 73.5492 32.3635C77.6942 32.1309 79.763 31.2945 81.3825 29.3309C82.5311 27.949 82.7808 26.3564 82.0816 24.8436C81.1542 22.8945 78.4718 20.8364 73.5706 20.1454ZM70.8382 38C70.1034 38 69.3899 37.7018 68.8762 37.1781C68.063 36.349 68.0488 35.5636 68.0274 34.1309C68.013 33.4182 68.0059 32.4145 68.0059 31.2145C67.9916 29.1127 68.006 26.1963 68.0202 22.5454C68.0416 16.2618 68.0916 10 68.0916 10L73.6277 10.0364C73.6134 11.5345 73.6063 13.0328 73.592 14.5454C80.1483 15.3091 85.0638 18.1527 87.0827 22.5018C88.7022 25.9637 88.1529 29.8473 85.6273 32.9018C81.7178 37.6 76.1746 37.9927 70.8382 38Z" fill="#BBBDBF"/>
<path d="M100.56 32.0708C99.7273 31.8521 98.9464 31.4678 98.2638 30.9406C97.5812 30.4134 97.0109 29.754 96.5864 29.0014H99.4964C102.715 29.0014 106.044 29.0014 108.926 29.0014H111.709L111.754 26.206C111.854 20.4965 109.263 16.1572 104.825 14.5677C102.853 13.906 100.734 13.8209 98.7147 14.3222C96.6958 14.8236 94.8603 15.8908 93.4219 17.3996C91.9365 18.9348 90.8812 20.8371 90.363 22.9138C89.8448 24.9904 89.882 27.1678 90.4709 29.2254C91.0598 31.283 92.1794 33.1477 93.7165 34.6308C95.2535 36.1138 97.1533 37.1625 99.2236 37.6707C100.165 37.8935 101.13 38.0038 102.097 37.9996C103.946 38.0138 105.778 37.6484 107.481 36.9258C109.183 36.2032 110.721 35.1386 112 33.7974L107.744 29.9697C106.808 30.8815 105.664 31.5495 104.412 31.9157C103.16 32.2819 101.838 32.3351 100.56 32.0708ZM97.5413 21.3278C98.224 20.6172 99.0888 20.1098 100.04 19.8615C100.992 19.6133 101.993 19.6339 102.934 19.9209C103.642 20.2005 104.271 20.6523 104.763 21.2358C105.255 21.8194 105.595 22.5164 105.753 23.2644H96.2409C96.5603 22.5486 97.0002 21.8934 97.5413 21.3278Z" fill="#BBBDBF"/>
<path d="M124.56 32.0708C123.727 31.8521 122.946 31.4678 122.264 30.9406C121.581 30.4134 121.011 29.754 120.586 29.0014H123.496C126.715 29.0014 130.044 29.0014 132.926 29.0014H135.709L135.754 26.206C135.854 20.4965 133.263 16.1572 128.825 14.5677C126.853 13.906 124.734 13.8209 122.715 14.3222C120.696 14.8236 118.86 15.8908 117.422 17.3996C115.936 18.9348 114.881 20.8371 114.363 22.9138C113.845 24.9904 113.882 27.1678 114.471 29.2254C115.06 31.283 116.179 33.1477 117.716 34.6308C119.253 36.1138 121.153 37.1625 123.224 37.6707C124.165 37.8935 125.13 38.0038 126.097 37.9996C127.946 38.0138 129.778 37.6484 131.481 36.9258C133.183 36.2032 134.721 35.1386 136 33.7974L131.744 29.9697C130.808 30.8815 129.664 31.5495 128.412 31.9157C127.16 32.2819 125.838 32.3351 124.56 32.0708ZM121.541 21.3278C122.224 20.6172 123.089 20.1098 124.04 19.8615C124.992 19.6133 125.993 19.6339 126.934 19.9209C127.642 20.2005 128.271 20.6523 128.763 21.2358C129.255 21.8194 129.595 22.5164 129.753 23.2644H120.241C120.56 22.5486 121 21.8934 121.541 21.3278Z" fill="#BBBDBF"/>
</g>
<defs>
<clipPath id="clip0_185_20">
<rect width="136" height="48" fill="white"/>
</clipPath>
<clipPath id="clip1_185_20">
<rect width="48" height="48" fill="white"/>
</clipPath>
</defs>
</svg>
