<svg width="128" height="128" viewBox="0 0 128 128" fill="none" xmlns="http://www.w3.org/2000/svg">
<style>
  .icon { fill: hsl(160, 42%, 82%); }
  @media (prefers-color-scheme: light) {
    .icon { fill: hsl(160, 42%, 49%); }
  }
</style>
<path class="icon" d="M92.5361 8.5752C94.6797 8.57524 96.6607 9.71883 97.7324 11.5752L126.268 61.001C127.339 62.8574 127.339 65.1446 126.268 67.001L97.7324 116.427C96.6606 118.283 94.6796 119.427 92.5361 119.427H35.4639C33.3204 119.427 31.3393 118.283 30.2676 116.427L1.73243 67.001C0.660639 65.1446 0.660642 62.8574 1.73243 61.001L30.2676 11.5752C31.3393 9.71889 33.3204 8.57532 35.4639 8.5752H92.5361ZM47.1836 36C47.1836 36 47.0838 48.5236 47.041 61.0908C47.0126 68.3924 46.9833 74.2251 47.0117 78.4287C47.0117 80.8285 47.026 82.8362 47.0547 84.2617C47.0975 87.1271 47.1265 88.6982 48.7529 90.3564C49.7803 91.4037 51.2074 92 52.6768 92C63.3494 91.9853 74.4359 91.2 82.2549 81.8037C87.306 75.6948 88.4048 67.9275 85.166 61.0039C81.1281 52.3058 71.2969 46.6182 58.1846 45.0908C58.213 42.0657 58.2274 39.0693 58.2559 36.0732L47.1836 36ZM58.1416 56.291C67.9437 57.6731 73.3083 61.7894 75.1631 65.6875C76.5613 68.713 76.0628 71.8984 73.7656 74.6621C70.5267 78.5893 66.3886 80.2623 58.0986 80.7275C58.0699 75.1712 58.0988 65.8619 58.1416 56.291Z"/>
</svg>
