<svg width="128" height="128" viewBox="0 0 128 128" fill="none" xmlns="http://www.w3.org/2000/svg">
<style>
  .hex { fill: hsl(160, 42%, 49%); }
</style>
<path class="hex" d="M92.5359 8.57519C94.6795 8.57519 96.6602 9.71879 97.732 11.5752L126.268 61.0008C127.34 62.8572 127.34 65.1444 126.268 67.0008L97.732 116.426C96.6602 118.283 94.6795 119.426 92.5359 119.426L35.4641 119.426C33.3205 119.426 31.3397 118.283 30.2679 116.426L1.73202 67.0008C0.660226 65.1444 0.660227 62.8572 1.73202 61.0008L30.2679 11.5752C31.3397 9.71878 33.3205 8.57519 35.4641 8.57519L92.5359 8.57519Z"/>
<path fill-rule="evenodd" clip-rule="evenodd" d="M58.1413 56.2908C58.0985 65.8618 58.0698 75.1707 58.0985 80.7271C66.3884 80.2618 70.5261 78.589 73.765 74.6618C76.0622 71.898 76.5616 68.7127 75.1633 65.6872C73.3085 61.789 67.9435 57.6728 58.1413 56.2908ZM52.6763 92C51.2068 92 49.7798 91.4036 48.7525 90.3562C47.126 88.698 47.0976 87.1272 47.0548 84.2618C47.0261 82.8363 47.0117 80.8289 47.0117 78.429C46.9833 74.2254 47.012 68.3926 47.0404 61.0908C47.0832 48.5235 47.1832 36 47.1832 36L58.2553 36.0728C58.2269 39.069 58.2125 42.0655 58.1841 45.0909C71.2966 46.6182 81.1275 52.3054 85.1655 61.0036C88.4045 67.9273 87.3058 75.6946 82.2546 81.8036C74.4356 91.2 63.3491 91.9853 52.6763 92Z" fill="white"/>
</svg>
