<svg width="154" height="52" viewBox="0 0 154 52" fill="none" xmlns="http://www.w3.org/2000/svg">
<style>
  .t { fill: hsl(160, 42%, 82%); }
  @media (prefers-color-scheme: light) {
    .t { fill: hsl(160, 42%, 49%); }
  }
</style>
<path class="t" d="M33.4062 6C34.1878 6.00002 34.9102 6.41267 35.3011 7.08253L45.7069 24.9175C46.0977 25.5873 46.0977 26.4127 45.7069 27.0825L35.3011 44.9175C34.9102 45.5873 34.1878 46 33.4062 46H12.5938C11.8122 46 11.0898 45.5873 10.6989 44.9175L0.293135 27.0825C-0.0977122 26.4127 -0.097711 25.5873 0.293135 24.9175L10.6989 7.08253C11.0898 6.41269 11.8122 6.00004 12.5938 6H33.4062ZM16.8676 15.896C16.8676 15.896 16.8312 20.4151 16.8156 24.9499C16.8053 27.5846 16.7946 29.6893 16.805 31.2061C16.805 32.0721 16.8102 32.7966 16.8206 33.3109C16.8362 34.3449 16.8468 34.9118 17.4399 35.5102C17.8145 35.8881 18.335 36.1032 18.8708 36.1032C22.7628 36.098 26.8056 35.8146 29.6569 32.424C31.4989 30.2196 31.8996 27.4169 30.7185 24.9185C29.246 21.7799 25.6609 19.7275 20.8793 19.1764C20.8897 18.0848 20.8949 17.0036 20.9053 15.9225L16.8676 15.896ZM20.8636 23.2179C24.4381 23.7166 26.3944 25.202 27.0708 26.6086C27.5807 27.7003 27.3989 28.8497 26.5612 29.847C25.38 31.2641 23.871 31.8678 20.848 32.0357C20.8375 30.0307 20.848 26.6715 20.8636 23.2179Z"/>
<path class="t" fill-rule="evenodd" clip-rule="evenodd" d="M71.5706 22.1454C71.5492 26.9309 71.5349 31.5854 71.5492 34.3635C75.6942 34.1309 77.763 33.2945 79.3825 31.3309C80.5311 29.949 80.7808 28.3564 80.0816 26.8436C79.1542 24.8945 76.4718 22.8364 71.5706 22.1454ZM68.8382 40C68.1034 40 67.3899 39.7018 66.8762 39.1781C66.063 38.349 66.0488 37.5636 66.0274 36.1309C66.013 35.4182 66.0059 34.4145 66.0059 33.2145C65.9916 31.1127 66.006 28.1963 66.0202 24.5454C66.0416 18.2618 66.0916 12 66.0916 12L71.6277 12.0364C71.6134 13.5345 71.6063 15.0328 71.592 16.5454C78.1483 17.3091 83.0638 20.1527 85.0827 24.5018C86.7022 27.9637 86.1529 31.8473 83.6273 34.9018C79.7178 39.6 74.1746 39.9927 68.8382 40Z"/>
<path class="t" d="M98.5603 34.0708C97.7273 33.8521 96.9464 33.4678 96.2638 32.9406C95.5812 32.4134 95.0109 31.754 94.5864 31.0014H97.4964C100.715 31.0014 104.044 31.0014 106.926 31.0014H109.709L109.754 28.206C109.854 22.4965 107.263 18.1572 102.825 16.5677C100.853 15.906 98.7335 15.8209 96.7147 16.3222C94.6958 16.8236 92.8603 17.8908 91.4219 19.3996C89.9365 20.9348 88.8812 22.8371 88.363 24.9138C87.8448 26.9904 87.882 29.1678 88.4709 31.2254C89.0598 33.283 90.1794 35.1477 91.7165 36.6308C93.2535 38.1138 95.1533 39.1625 97.2236 39.6707C98.1652 39.8935 99.1297 40.0038 100.097 39.9996C101.946 40.0138 103.778 39.6484 105.481 38.9258C107.183 38.2032 108.721 37.1386 110 35.7974L105.744 31.9697C104.808 32.8815 103.664 33.5495 102.412 33.9157C101.16 34.2819 99.8375 34.3351 98.5603 34.0708ZM95.5413 23.3278C96.224 22.6172 97.0888 22.1098 98.0403 21.8615C98.9918 21.6133 99.9931 21.6339 100.934 21.9209C101.642 22.2005 102.271 22.6523 102.763 23.2358C103.255 23.8194 103.595 24.5164 103.753 25.2644H94.2409C94.5603 24.5486 95.0002 23.8934 95.5413 23.3278Z"/>
<path class="t" d="M122.56 34.0708C121.727 33.8521 120.946 33.4678 120.264 32.9406C119.581 32.4134 119.011 31.754 118.586 31.0014H121.496C124.715 31.0014 128.044 31.0014 130.926 31.0014H133.709L133.754 28.206C133.854 22.4965 131.263 18.1572 126.825 16.5677C124.853 15.906 122.734 15.8209 120.715 16.3222C118.696 16.8236 116.86 17.8908 115.422 19.3996C113.936 20.9348 112.881 22.8371 112.363 24.9138C111.845 26.9904 111.882 29.1678 112.471 31.2254C113.06 33.283 114.179 35.1477 115.716 36.6308C117.253 38.1138 119.153 39.1625 121.224 39.6707C122.165 39.8935 123.13 40.0038 124.097 39.9996C125.946 40.0138 127.778 39.6484 129.481 38.9258C131.183 38.2032 132.721 37.1386 134 35.7974L129.744 31.9697C128.808 32.8815 127.664 33.5495 126.412 33.9157C125.16 34.2819 123.838 34.3351 122.56 34.0708ZM119.541 23.3278C120.224 22.6172 121.089 22.1098 122.04 21.8615C122.992 21.6133 123.993 21.6339 124.934 21.9209C125.642 22.2005 126.271 22.6523 126.763 23.2358C127.255 23.8194 127.595 24.5164 127.753 25.2644H118.241C118.56 24.5486 119 23.8934 119.541 23.3278Z"/>
</svg>
